<?xml version="1.0" encoding="UTF-8"?>
<!DOCTYPE svg PUBLIC "-//W3C//DTD SVG 1.1//EN" "http://www.w3.org/Graphics/SVG/1.1/DTD/svg11.dtd">
<!-- Creator: CorelDRAW 2019 (64-Bit) -->
<svg xmlns="http://www.w3.org/2000/svg" xml:space="preserve" width="48px" height="48px" version="1.1" style="shape-rendering:geometricPrecision; text-rendering:geometricPrecision; image-rendering:optimizeQuality; fill-rule:evenodd; clip-rule:evenodd"
viewBox="0 0 48 48"
 xmlns:xlink="http://www.w3.org/1999/xlink">
 <defs>
  <style type="text/css">
   <![CDATA[
    .fil0 {fill:#0092F1}
   ]]>
  </style>
 </defs>
 <g id="Слой_x0020_1">
  <metadata id="CorelCorpID_0Corel-Layer"/>
  <path class="fil0" d="M0.57 14.02c5.97,2.73 -0.83,-0.26 7.37,3.34 -4.07,17.47 -1.79,6.66 -1.79,16.23 0,2.07 -2.89,5.91 -3.63,9.07l2.61 1.94c2.9,-1.6 4.65,-2.18 4.65,-10.1 0,-9.35 -3.67,-14.19 5.12,-18.46 3.32,-1.61 6.43,-3.89 10.29,-4.22 -4.16,6.22 -10.28,3.41 -11.79,9.07 14.2,1.18 0.69,9.57 28.14,-3.6 3.12,-1.61 1.51,-0.78 6.12,-3.4l-23.37 -10.23 -23.72 10.36z"/>
  <path class="fil0" d="M12.5 27.24c0,3.13 -0.67,3.51 -0.91,6.35 6.75,4.52 19.78,5.78 24.72,-0.68 2.3,-3 1.58,-6.28 1.58,-11.11 -12.37,2.88 -8.37,8.59 -19.95,2.71 -2.58,-1.31 -4.03,-1.96 -7.26,-2.71 0.13,5.64 1.82,3.67 1.82,5.44z"/>
 </g>
</svg>
